<?xml version="1.0" encoding="utf-8"?>
<!-- Generator: Adobe Illustrator 23.1.1, SVG Export Plug-In . SVG Version: 6.00 Build 0)  -->
<svg version="1.1" id="Layer_1" xmlns="http://www.w3.org/2000/svg" xmlns:xlink="http://www.w3.org/1999/xlink" x="0px" y="0px"
	 viewBox="40 40 280 280" style="enable-background:new 40 40 280 280;" xml:space="preserve">
<style type="text/css">
	.st0{fill:#FAA819;}
	.st1{fill:#FDB84C;}
	.st2{fill:#FFFFFF;}
</style>
<g>
	<path class="st0" d="M253.95,140.98c-2.17,0-4.27-1.18-5.33-3.24c-1.52-2.94-0.37-6.56,2.57-8.09l36.91-19.09L180,48.15
		L71.91,110.56l36.91,19.09c2.94,1.52,4.09,5.14,2.57,8.09c-1.07,2.06-3.16,3.24-5.33,3.24c-0.93,0-1.87-0.22-2.75-0.67
		l-37.48-19.39v125.01L174,308.38V262.4c0-3.31,2.69-6,6-6s6,2.69,6,6v45.99l108.19-62.46V120.92l-37.48,19.39
		C255.82,140.77,254.88,140.98,253.95,140.98z M226.57,184.67c0,32.4-39.67,47.6-45.37,49.62c-0.44,0.15-0.92,0.15-1.36,0
		c-5.7-2.02-45.37-17.22-45.37-49.62c0-20.84,0-33.95,0-38.7c0-1.1,0.87-2.01,1.96-2.05c11.47-0.42,26.15-4.57,42.91-16.55
		c0.71-0.5,1.66-0.5,2.36,0c16.75,11.99,31.44,16.14,42.91,16.55c1.1,0.04,1.96,0.95,1.96,2.05
		C226.57,150.71,226.57,163.82,226.57,184.67z"/>
	<path class="st0" d="M145.98,154.49v30.18c0,21.31,25.16,33.68,34.54,37.55c9.43-3.9,34.54-16.27,34.54-37.55v-30.18
		c-11.4-1.91-22.97-6.61-34.54-14.02C168.93,147.89,157.36,152.58,145.98,154.49z M205.48,159.22c2.94,2.27,2.12,2.97-0.09,6.12
		l-28.8,41.26c-0.48,0.62-1.25,0.98-2.06,0.97c-0.82-0.01-1.57-0.4-2.03-1.04c-3.99-5.56-15.71-20.24-16.76-21.76
		c-2.35-3.39-3.02-4.07-0.45-6.58c2.32-2.28,3.74-1.31,6.63,0.88c2.89,2.19,12.44,9.72,12.44,9.72l24.87-28.81
		C201.63,157.2,202.53,156.95,205.48,159.22z"/>
	<path class="st1" d="M180,256.4c-3.31,0-6,2.69-6,6v45.99l6,3.46l6-3.46V262.4C186,259.08,183.31,256.4,180,256.4z"/>
	<path class="st1" d="M106.05,140.98c2.17,0,4.27-1.18,5.33-3.24c1.52-2.94,0.37-6.56-2.57-8.09l-36.91-19.09l-6.09,3.52v6.84
		l37.48,19.39C104.18,140.77,105.12,140.98,106.05,140.98z"/>
	<path class="st1" d="M288.09,110.56l-36.91,19.09c-2.94,1.52-4.09,5.14-2.57,8.09c1.07,2.06,3.16,3.24,5.33,3.24
		c0.93,0,1.87-0.22,2.75-0.67l37.48-19.39v-6.84L288.09,110.56z"/>
	<path class="st2" d="M161.92,179.07c-2.89-2.19-4.31-3.16-6.63-0.88c-2.57,2.52-1.9,3.2,0.45,6.58
		c1.05,1.52,12.77,16.2,16.76,21.76c0.46,0.63,1.21,1.02,2.03,1.04c0.81,0.01,1.58-0.35,2.06-0.97l28.8-41.26
		c2.2-3.15,3.03-3.85,0.09-6.12c-2.95-2.27-3.85-2.02-6.24,0.77l-24.87,28.81C174.36,188.8,164.81,181.27,161.92,179.07z"/>
	<path class="st2" d="M224.6,143.92c-11.47-0.42-26.15-4.57-42.91-16.55c-0.71-0.5-1.66-0.5-2.36,0
		c-16.76,11.99-31.44,16.14-42.91,16.55c-1.09,0.04-1.96,0.95-1.96,2.05c0,4.75,0,17.86,0,38.7c0,32.41,39.67,47.61,45.37,49.62
		c0.44,0.15,0.92,0.15,1.36,0c5.7-2.02,45.37-17.22,45.37-49.62c0-20.84,0-33.95,0-38.7C226.57,144.86,225.7,143.96,224.6,143.92z
		 M215.05,184.67c0,21.28-25.12,33.65-34.54,37.55c-9.38-3.87-34.54-16.23-34.54-37.55v-30.18c11.39-1.91,22.96-6.6,34.54-14.02
		c11.57,7.41,23.14,12.11,34.54,14.02V184.67z"/>
</g>
</svg>
