<svg viewBox="0 0 226 315" version="1.1" xmlns="http://www.w3.org/2000/svg" xmlns:xlink="http://www.w3.org/1999/xlink">
	<title>Flipbox</title>
	<desc>Flipbox Digital / Factory</desc>
	<defs>
		<path d="M75.7783962,157.158663 L112.965062,119.971997 L150.153061,157.158663 L150.143728,157.167996 L150.309061,157.33333 L113.122395,194.521329 L75.9357296,157.334663 L75.9450629,157.32533 L75.7783962,157.158663 Z M44.2117304,157.245996 L0.213064786,201.244662 L113.045062,314.075326 L225.875726,201.244662 L181.878394,157.245996 L225.875726,113.248664 L113.045062,0.416666996 L0.21439812,113.248664 L44.2117304,157.245996 Z M113.043729,17.0233332 L209.26906,113.248664 L173.57306,148.94333 L166.051727,141.420663 L194.22506,113.248664 L113.043729,32.0673329 L31.8623973,113.248664 L68.3317298,149.716663 L68.4130631,149.636663 L74.6343963,143.413997 C74.6357296,143.417997 74.6370629,143.421997 74.6383963,143.424663 L113.043729,105.019331 L209.26906,201.244662 L113.043729,297.46866 L16.8183977,201.244662 L52.5130635,165.549996 L60.03573,173.071329 L31.8623973,201.244662 L113.043729,282.42466 L194.223727,201.244662 L157.755728,164.77533 L157.674394,164.856663 L153.622394,168.907329 C153.622394,168.904663 153.621061,168.900663 153.621061,168.900663 L113.043729,209.472662 L16.8183977,113.248664 L113.043729,17.0233332 Z" id="path-1"></path>
	</defs>
	<g id="Page-1" stroke="none" stroke-width="1" fill="none" fill-rule="evenodd">
		<g id="Digital">
			<g id="Logo">
				<mask id="mask-2" fill="white">
					<use xlink:href="#path-1"></use>
				</mask>
				<use id="Shape" fill="#000000" xlink:href="#path-1"></use>
			</g>
		</g>
	</g>
</svg>
