<svg viewBox="0 0 205 15" version="1.1" xmlns="http://www.w3.org/2000/svg">
	<title>Flipbox Digital</title>
	<desc>World Class Technology Services</desc>
	<defs></defs>
	<g id="Logo" stroke="none" stroke-width="1" fill="none" fill-rule="evenodd">
		<path d="M3.16,14 L3.16,8.48 L9.62,8.48 L9.62,5.98 L3.16,5.98 L3.16,3.16 L9.76,3.16 L9.76,0.66 L0.32,0.66 L0.32,14 L3.16,14 Z M23.8311112,14 L23.8311112,11.5 L18.1911112,11.5 L18.1911112,0.66 L15.3511112,0.66 L15.3511112,14 L23.8311112,14 Z M32.2622223,14 L32.2622223,0.66 L29.4222223,0.66 L29.4222223,14 L32.2622223,14 Z M41.3533335,14 L41.3533335,9.26 L44.7533335,9.26 C47.6333335,9.26 49.2333335,7.28 49.2333335,4.96 C49.2333335,2.62 47.6533335,0.66 44.7533335,0.66 L38.5133335,0.66 L38.5133335,14 L41.3533335,14 Z M44.3733335,6.76 L41.3533335,6.76 L41.3533335,3.16 L44.3733335,3.16 C45.4933335,3.16 46.3333335,3.84 46.3333335,4.96 C46.3333335,6.06 45.4933335,6.76 44.3733335,6.76 L44.3733335,6.76 Z M61.8444447,14 C64.3844447,14 65.7244447,12.4 65.7244447,10.4 C65.7244447,8.72 64.5844447,7.34 63.1644447,7.12 C64.4244447,6.86 65.4644447,5.74 65.4644447,4.06 C65.4644447,2.28 64.1644447,0.66 61.6244447,0.66 L54.6044447,0.66 L54.6044447,14 L61.8444447,14 Z M61.0044447,6 L57.4444447,6 L57.4444447,3.1 L61.0044447,3.1 C61.9644447,3.1 62.5644447,3.72 62.5644447,4.56 C62.5644447,5.4 61.9644447,6 61.0044447,6 L61.0044447,6 Z M61.1044447,11.54 L57.4444447,11.54 L57.4444447,8.44 L61.1044447,8.44 C62.2244447,8.44 62.8244447,9.16 62.8244447,10 C62.8244447,10.96 62.1844447,11.54 61.1044447,11.54 L61.1044447,11.54 Z M77.7955558,14.24 C81.8355558,14.24 84.7755558,11.36 84.7755558,7.34 C84.7755558,3.32 81.8355558,0.44 77.7955558,0.44 C73.7755558,0.44 70.8355558,3.32 70.8355558,7.34 C70.8355558,11.36 73.7755558,14.24 77.7955558,14.24 L77.7955558,14.24 Z M77.7955558,11.72 C75.3355558,11.72 73.7555558,9.82 73.7555558,7.34 C73.7555558,4.84 75.3355558,2.96 77.7955558,2.96 C80.2555558,2.96 81.8555558,4.84 81.8555558,7.34 C81.8555558,9.82 80.2555558,11.72 77.7955558,11.72 L77.7955558,11.72 Z M101.886667,14 L97.046667,7.14 L101.586667,0.66 L98.166667,0.66 L95.146667,5.22 L92.086667,0.66 L88.706667,0.66 L93.246667,7.16 L88.406667,14 L91.786667,14 L95.146667,9.12 L98.486667,14 L101.886667,14 Z M120.088889,14 C124.228889,14 126.828889,11.04 126.828889,7.34 C126.828889,3.68 124.228889,0.66 120.088889,0.66 L115.828889,0.66 L115.828889,14 L120.088889,14 Z M120.088889,12.96 L116.968889,12.96 L116.968889,1.7 L120.088889,1.7 C123.628889,1.7 125.628889,4.22 125.628889,7.34 C125.628889,10.46 123.608889,12.96 120.088889,12.96 L120.088889,12.96 Z M134.42,14 L134.42,0.66 L133.28,0.66 L133.28,14 L134.42,14 Z M147.611112,14.26 C149.711112,14.26 151.491112,13.36 152.671112,12.04 L152.671112,7.38 L146.491112,7.38 L146.491112,8.4 L151.531112,8.4 L151.531112,11.6 C150.791112,12.34 149.391112,13.22 147.611112,13.22 C144.471112,13.22 142.051112,10.78 142.051112,7.34 C142.051112,3.86 144.471112,1.48 147.611112,1.48 C149.311112,1.48 150.831112,2.22 151.771112,3.34 L152.631112,2.72 C151.411112,1.32 149.811112,0.44 147.611112,0.44 C143.871112,0.44 140.851112,3.22 140.851112,7.34 C140.851112,11.46 143.871112,14.26 147.611112,14.26 L147.611112,14.26 Z M160.322223,14 L160.322223,0.66 L159.182223,0.66 L159.182223,14 L160.322223,14 Z M171.813334,14 L171.813334,1.7 L176.173334,1.7 L176.173334,0.66 L166.293334,0.66 L166.293334,1.7 L170.653334,1.7 L170.653334,14 L171.813334,14 Z M191.744445,14 L186.284445,0.66 L184.864445,0.66 L179.404445,14 L180.724445,14 L182.044445,10.72 L189.104445,10.72 L190.424445,14 L191.744445,14 Z M188.724445,9.68 L182.424445,9.68 L185.564445,1.88 L188.724445,9.68 Z M204.915556,14 L204.915556,12.96 L198.455556,12.96 L198.455556,0.66 L197.315556,0.66 L197.315556,14 L204.915556,14 Z" id="flipbox-digital-logo" fill="#000000"></path>
	</g>
</svg>