<?xml version="1.0" encoding="UTF-8"?><svg width="200px" height="230px" viewBox="0 0 200 230" version="1.1" xmlns="http://www.w3.org/2000/svg" xmlns:xlink="http://www.w3.org/1999/xlink"><title>SAML SSO Service Provider</title><desc>SAML SSO Service Provider for Craft CMS (by Flipbox)</desc><defs><linearGradient x1="0%" y1="0%" x2="50%" y2="100%" id="linearGradient-1"><stop stop-color="#F0461D" offset="0%"></stop><stop stop-color="#FF2078" offset="100%"></stop></linearGradient></defs><g id="Page-1" stroke="none" stroke-width="1" fill="none" fill-rule="evenodd"><g id="SAML" fill-rule="nonzero"><g id="Icon"><polygon id="Polygon" fill="url(#linearGradient-1)" points="100 0 200 57.5 200 172.5 100 230 0 172.5 0 57.5"></polygon><g id="Group" transform="translate(42.000000, 57.000000)" fill="#FFFFFF"><path d="M115.184606,26.6234136 C115.066629,25.6402742 114.358769,24.8144372 113.414955,24.5784837 C74.3253348,14.3538345 59.5782446,0.904488202 59.4602679,0.78651148 C58.5164541,-0.078651148 57.1007334,-0.078651148 56.1569196,0.78651148 C55.9996173,0.904488202 41.2918527,14.3538345 2.20223214,24.5784837 C1.25841837,24.8144372 0.550558036,25.6402742 0.432581314,26.6234136 C0.353930166,27.2526228 -6.41006856,91.3926339 56.9827567,115.302583 C57.2580357,115.42056 57.5333147,115.459885 57.8085938,115.459885 C58.0838728,115.459885 58.3984774,115.42056 58.6344308,115.302583 C122.027256,91.3926339 115.263257,27.2526228 115.184606,26.6234136 Z M57.8085938,84.2353795 C43.2188058,84.2353795 31.381808,72.3590561 31.381808,57.8085938 C31.381808,43.2188058 43.2188058,31.381808 57.8085938,31.381808 C72.3983817,31.381808 84.2353795,43.2188058 84.2353795,57.8085938 C84.2353795,72.3590561 72.3983817,84.2353795 57.8085938,84.2353795 Z" id="Shape"></path><polygon id="Shape" points="52.617618 64.7692203 43.9659917 56.1175941 40.5839923 59.4995934 52.617618 71.5332191 75.0331952 49.1569675 71.6511958 45.7356425"></polygon></g></g></g></g></svg>