<?xml version="1.0" encoding="UTF-8"?><svg width="116px" height="116px" viewBox="0 0 116 116" version="1.1" xmlns="http://www.w3.org/2000/svg" xmlns:xlink="http://www.w3.org/1999/xlink"><title>SAML Service Provider</title><desc>SAML Service Provider for Craft CMS (by Flipbox)</desc><defs></defs><g id="Page-1" stroke="none" stroke-width="1" fill="none" fill-rule="evenodd"><g id="SAML" transform="translate(-642.000000, -57.000000)" fill="#000000" fill-rule="nonzero"><g id="Mask" transform="translate(641.468750, 56.785156)"><path d="M115.715856,26.8382573 C115.597879,25.855118 114.890019,25.0292809 113.946205,24.7933275 C74.8565848,14.5686783 60.1094946,1.11933195 59.9915179,1.00135523 C59.0477041,0.136192602 57.6319834,0.136192602 56.6881696,1.00135523 C56.5308673,1.11933195 41.8231027,14.5686783 2.73348214,24.7933275 C1.78966837,25.0292809 1.08180804,25.855118 0.963831314,26.8382573 C0.885180166,27.4674665 -5.87881856,91.6074777 57.5140067,115.517427 C57.7892857,115.635403 58.0645647,115.674729 58.3398437,115.674729 C58.6151228,115.674729 58.9297274,115.635403 59.1656808,115.517427 C122.558506,91.6074777 115.794507,27.4674665 115.715856,26.8382573 Z M58.3398437,84.4502232 C43.7500558,84.4502232 31.913058,72.5738999 31.913058,58.0234375 C31.913058,43.4336496 43.7500558,31.5966518 58.3398437,31.5966518 C72.9296317,31.5966518 84.7666295,43.4336496 84.7666295,58.0234375 C84.7666295,72.5738999 72.9296317,84.4502232 58.3398437,84.4502232 Z" id="Shape"></path><polygon id="Shape" points="53.148868 64.9840641 44.4972417 56.3324378 41.1152423 59.7144372 53.148868 71.7480628 75.5644452 49.3718112 72.1824458 45.9504863"></polygon></g></g></g></svg>