<?xml version="1.0" encoding="utf-8"?>
<!-- Generator: Adobe Illustrator 23.1.1, SVG Export Plug-In . SVG Version: 6.00 Build 0)  -->
<svg version="1.1" id="Layer_1" xmlns="http://www.w3.org/2000/svg" xmlns:xlink="http://www.w3.org/1999/xlink" x="0px" y="0px"
	 viewBox="98 98 166 166" style="enable-background:new 98 98 166 166;" xml:space="preserve">
<style type="text/css">
	.st0{fill:#FAA819;}
</style>
<g>
	<path class="st0" d="M152.51,177.57c-4.33-3.29-6.47-4.73-9.95-1.32c-3.85,3.78-2.85,4.8,0.68,9.88
		c1.57,2.28,19.16,24.3,25.14,32.64c0.69,0.95,1.82,1.53,3.04,1.55c1.22,0.02,2.38-0.52,3.1-1.46l43.2-61.9
		c3.3-4.73,4.54-5.77,0.13-9.18c-4.42-3.41-5.78-3.04-9.37,1.16l-37.31,43.21C171.17,192.16,156.84,180.86,152.51,177.57z"/>
	<path class="st0" d="M246.53,124.83c-17.2-0.62-39.23-6.85-64.36-24.83c-1.06-0.75-2.48-0.75-3.55,0
		c-25.13,17.98-47.16,24.21-64.36,24.83c-1.64,0.06-2.95,1.42-2.95,3.08c0,7.12,0,26.79,0,58.05c0,48.61,59.51,71.41,68.06,74.43
		c0.66,0.22,1.38,0.22,2.04,0c8.56-3.04,68.06-25.84,68.06-74.43c0-31.27,0-50.93,0-58.05C249.47,126.26,248.17,124.9,246.53,124.83
		z M232.2,185.96c0,31.92-37.67,50.47-51.81,56.32c-14.06-5.8-51.8-24.35-51.8-56.32v-45.27c17.08-2.86,34.43-9.9,51.81-21.03
		c17.36,11.12,34.71,18.16,51.81,21.03V185.96z"/>
</g>
</svg>
